<svg width="220" height="82" viewBox="0 0 220 82" fill="none" xmlns="http://www.w3.org/2000/svg">
<g filter="url(#filter0_bd_97_542)">
<path d="M25 30C25 26.134 28.134 23 32 23H180.764C182.58 23 184.324 23.7056 185.624 24.971C187.367 26.669 189.784 29.032 191.763 31.0044C192.754 31.9915 193.63 32.876 194.257 33.5292C194.572 33.8571 194.816 34.1185 194.978 34.302C194.985 34.3108 194.993 34.3192 195 34.3274V34.3478V34.3863V34.4248V34.4632V34.5016V34.54V34.5784V34.6167V34.655V34.6933V34.7315V34.7698V34.808V34.8461V34.8843V34.9224V34.9604V34.9985V35.0365V35.0745V35.1125V35.1504V35.1883V35.2262V35.2641V35.3019V35.3397V35.3775V35.4152V35.4529V35.4906V35.5283V35.5659V35.6035V35.6411V35.6786V35.7162V35.7537V35.7911V35.8285V35.8659V35.9033V35.9407V35.978V36.0153V36.0525V36.0898V36.127V36.1642V36.2013V36.2384V36.2755V36.3126V36.3496V36.3866V36.4236V36.4606V36.4975V36.5344V36.5712V36.6081V36.6449V36.6817V36.7184V36.7551V36.7918V36.8285V36.8651V36.9017V36.9383V36.9749V37.0114V37.0479V37.0843V37.1208V37.1572V37.1936V37.2299V37.2662V37.3025V37.3388V37.375V37.4112V37.4474V37.4836V37.5197V37.5558V37.5919V37.6279V37.6639V37.6999V37.7358V37.7717V37.8076V37.8435V37.8793V37.9151V37.9509V37.9867V38.0224V38.0581V38.0937V38.1294V38.165V38.2005V38.2361V38.2716V38.3071V38.3426V38.378V38.4134V38.4488V38.4841V38.5194V38.5547V38.59V38.6252V38.6604V38.6956V38.7307V38.7658V38.8009V38.8359V38.871V38.906V38.9409V38.9759V39.0108V39.0457V39.0805V39.1153V39.1501V39.1849V39.2196V39.2543V39.289V39.3236V39.3583V39.3928V39.4274V39.4619V39.4964V39.5309V39.5654V39.5998V39.6342V39.6685V39.7028V39.7371V39.7714V39.8056V39.8398V39.874V39.9082V39.9423V39.9764V40.0104V40.0445V40.0785V40.1125V40.1464V40.1803V40.2142V40.2481V40.2819V40.3157V40.3495V40.3832V40.4169V40.4506V40.4842V40.5179V40.5515V40.585V40.6186V40.6521V40.6855V40.719V40.7524V40.7858V40.8191V40.8525V40.8858V40.919V40.9523V40.9855V41.0187V41.0518V41.0849V41.118V41.1511V41.1841V41.2171V41.2501V41.283V41.3159V41.3488V41.3817V41.4145V41.4473V41.4801V41.5128V41.5455V41.5782V41.6108V41.6434V41.676V41.7086V41.7411V41.7736V41.8061V41.8385V41.8709V41.9033V41.9357V41.968V42.0003V42.0325V42.0648V42.097V42.1291V42.1613V42.1934V42.2255V42.2575V42.2895V42.3215V42.3535V42.3854V42.4173V42.4492V42.481V42.5128V42.5446V42.5764V42.6081V42.6398V42.6714V42.7031V42.7347V42.7663V42.7978V42.8293V42.8608V42.8922V42.9237V42.955V42.9864V43.0177V43.049V43.0803V43.1116V43.1428V43.1739V43.2051V43.2362V43.2673V43.2984V43.3294V43.3604V43.3914V43.4223V43.4532V43.4841V43.5149V43.5458V43.5765V43.6073V43.638V43.6687V43.6994V43.73V43.7606V43.7912V43.8218V43.8523V43.8828V43.9132V43.9436V43.974V44.0044V44.0347V44.065V44.0953V44.1256V44.1558V44.186V44.2161V44.2462V44.2763V44.3064V44.3364V44.3664V44.3964V44.4263V44.4562V44.4861V44.516V44.5458V44.5756V44.6053V44.635V44.6647V44.6944V44.724V44.7536V44.7832V44.8127V44.8423V44.8717V44.9012V44.9306V44.96V44.9894V45.0187V45.048V45.0772V45.1065V45.1357V45.1649V45.194V45.2231V45.2522V45.2812V45.3103V45.3393V45.3682V45.3972V45.426V45.4549V45.4838V45.5126V45.5413V45.5701V45.5988V45.6275V45.6561V45.6847V45.7133V45.7419V45.7704V45.7989V45.8274V45.8558V45.8842V45.9126V45.9409V45.9693V45.9975V46.0258V46.054V46.0822V46.1103V46.1385V46.1666V46.1946V46.2227V46.2507V46.2786V46.3066V46.3345V46.3624V46.3902V46.418V46.4458V46.4736V46.5013V46.529V46.5567V46.5843V46.6119V46.6394V46.667V46.6945V46.722V46.7494V46.7768V46.8042V46.8315V46.8589V46.8862V46.9134V46.9406V46.9678V46.995V47.0221V47.0492V47.0763V47.1033V47.1303V47.1573V47.1843V47.2112V47.238V47.2649V47.2917V47.3185V47.3453V47.372V47.3987V47.4253V47.452V47.4786V47.5051V47.5317V47.5582V47.5846V47.6111V47.6375V47.6639V47.6902V47.7165V47.7428V47.7691V47.7953V47.8215V47.8477V47.8738V47.8999V47.9259V47.952V47.978V48.0039V48.0299V48.0558V48.0817V48.1075V48.1333V48.1591V48.1848V48.2106V48.2362V48.2619V48.2875V48.3131V48.3387V48.3642V48.3897V48.4152V48.4406V48.466V48.4914V48.5167V48.542V48.5673V48.5925V48.6177V48.6429V48.6681V48.6932V48.7183V48.7433V48.7683V48.7933V48.8183V48.8432V48.8681V48.8929V48.9178V48.9426V48.9673V48.9921V49.0168V49.0414V49.0661V49.0907V49.1152V49.1398V49.1643V49.1888V49.2132V49.2376V49.262V49.2864V49.3107V49.335V49.3592V49.3834V49.4076V49.4318V49.4559V49.48V49.5041V49.5281V49.5521V49.5761V49.6V49.6239V49.6478V49.6716V49.6954V49.7192V49.7429V49.7666V49.7903V49.8139V49.8376V49.8611V49.8847V49.9082V49.9317V49.9551V49.9786V50.0019C195 53.8676 191.866 57 188 57H39.3137C37.4572 57 35.6767 56.2625 34.364 54.9497L27.0503 47.636C25.7375 46.3233 25 44.5428 25 42.6863V30Z" stroke="url(#paint0_linear_97_542)" stroke-width="2" shape-rendering="crispEdges"/>
</g>
<defs>
<filter id="filter0_bd_97_542" x="0" y="-2" width="220" height="84" filterUnits="userSpaceOnUse" color-interpolation-filters="sRGB">
<feFlood flood-opacity="0" result="BackgroundImageFix"/>
<feGaussianBlur in="BackgroundImageFix" stdDeviation="10"/>
<feComposite in2="SourceAlpha" operator="in" result="effect1_backgroundBlur_97_542"/>
<feColorMatrix in="SourceAlpha" type="matrix" values="0 0 0 0 0 0 0 0 0 0 0 0 0 0 0 0 0 0 127 0" result="hardAlpha"/>
<feOffset/>
<feGaussianBlur stdDeviation="12"/>
<feComposite in2="hardAlpha" operator="out"/>
<feColorMatrix type="matrix" values="0 0 0 0 0 0 0 0 0 0 0 0 0 0 0 0 0 0 0.06 0"/>
<feBlend mode="normal" in2="effect1_backgroundBlur_97_542" result="effect2_dropShadow_97_542"/>
<feBlend mode="normal" in="SourceGraphic" in2="effect2_dropShadow_97_542" result="shape"/>
</filter>
<linearGradient id="paint0_linear_97_542" x1="24" y1="24" x2="113.153" y2="128.607" gradientUnits="userSpaceOnUse">
<stop stop-color="#D7A7CC" stop-opacity="0.5"/>
<stop offset="0.298264" stop-color="white" stop-opacity="0"/>
<stop offset="0.621188" stop-color="#DCE1ED" stop-opacity="0"/>
<stop offset="1" stop-color="#5069A8" stop-opacity="0.5"/>
</linearGradient>
</defs>
</svg>
