<svg width="206" height="44" viewBox="0 0 206 44" fill="none" xmlns="http://www.w3.org/2000/svg">
<path d="M8 1H186.744C188.572 1 190.32 1.70925 191.623 2.98559C193.84 5.15756 197.257 8.51325 200.119 11.3623C201.551 12.7874 202.84 14.0824 203.77 15.0381C204.236 15.517 204.606 15.9045 204.857 16.1785C204.912 16.2388 204.96 16.2916 205 16.3371V16.3634V16.4087V16.4541V16.4994V16.5447V16.59V16.6353V16.6806V16.7258V16.771V16.8163V16.8615V16.9067V16.9518V16.997V17.0421V17.0872V17.1323V17.1774V17.2225V17.2676V17.3126V17.3576V17.4026V17.4476V17.4926V17.5376V17.5825V17.6274V17.6723V17.7172V17.7621V17.807V17.8518V17.8966V17.9414V17.9862V18.031V18.0758V18.1205V18.1652V18.2099V18.2546V18.2993V18.3439V18.3885V18.4332V18.4778V18.5223V18.5669V18.6114V18.656V18.7005V18.7449V18.7894V18.8339V18.8783V18.9227V18.9671V19.0115V19.0558V19.1002V19.1445V19.1888V19.2331V19.2773V19.3216V19.3658V19.41V19.4542V19.4984V19.5425V19.5866V19.6307V19.6748V19.7189V19.7629V19.807V19.851V19.895V19.9389V19.9829V20.0268V20.0707V20.1146V20.1585V20.2023V20.2462V20.29V20.3338V20.3775V20.4213V20.465V20.5087V20.5524V20.596V20.6397V20.6833V20.7269V20.7705V20.814V20.8576V20.9011V20.9446V20.9881V21.0315V21.0749V21.1183V21.1617V21.2051V21.2484V21.2918V21.3351V21.3783V21.4216V21.4648V21.508V21.5512V21.5944V21.6375V21.6807V21.7238V21.7668V21.8099V21.8529V21.8959V21.9389V21.9819V22.0248V22.0677V22.1106V22.1535V22.1964V22.2392V22.282V22.3248V22.3675V22.4102V22.453V22.4956V22.5383V22.5809V22.6236V22.6661V22.7087V22.7512V22.7938V22.8363V22.8787V22.9212V22.9636V23.006V23.0484V23.0907V23.133V23.1753V23.2176V23.2599V23.3021V23.3443V23.3865V23.4286V23.4708V23.5129V23.5549V23.597V23.639V23.681V23.723V23.7649V23.8069V23.8488V23.8906V23.9325V23.9743V24.0161V24.0579V24.0996V24.1413V24.183V24.2247V24.2663V24.308V24.3495V24.3911V24.4326V24.4742V24.5156V24.5571V24.5985V24.6399V24.6813V24.7227V24.764V24.8053V24.8465V24.8878V24.929V24.9702V25.0114V25.0525V25.0936V25.1347V25.1757V25.2167V25.2577V25.2987V25.3397V25.3806V25.4215V25.4623V25.5031V25.5439V25.5847V25.6255V25.6662V25.7069V25.7475V25.7882V25.8288V25.8693V25.9099V25.9504V25.9909V26.0314V26.0718V26.1122V26.1526V26.1929V26.2332V26.2735V26.3138V26.354V26.3942V26.4344V26.4745V26.5146V26.5547V26.5948V26.6348V26.6748V26.7147V26.7547V26.7946V26.8345V26.8743V26.9141V26.9539V26.9937V27.0334V27.0731V27.1127V27.1524V27.192V27.2315V27.2711V27.3106V27.3501V27.3895V27.4289V27.4683V27.5077V27.547V27.5863V27.6256V27.6648V27.704V27.7432V27.7823V27.8214V27.8605V27.8995V27.9385V27.9775V28.0164V28.0554V28.0942V28.1331V28.1719V28.2107V28.2495V28.2882V28.3269V28.3655V28.4042V28.4428V28.4813V28.5198V28.5583V28.5968V28.6352V28.6736V28.712V28.7503V28.7886V28.8269V28.8651V28.9033V28.9415V28.9796V29.0177V29.0558V29.0938V29.1318V29.1698V29.2077V29.2456V29.2835V29.3213V29.3591V29.3969V29.4346V29.4723V29.51V29.5476V29.5852V29.6227V29.6602V29.6977V29.7352V29.7726V29.81V29.8473V29.8847V29.9219V29.9592V29.9964V30.0336V30.0707V30.1078V30.1449V30.1819V30.2189V30.2559V30.2928V30.3297V30.3666V30.4034V30.4402V30.4769V30.5136V30.5503V30.587V30.6236V30.6601V30.6967V30.7332V30.7696V30.8061V30.8425V30.8788V30.9151V30.9514V30.9877V31.0239V31.06V31.0962V31.1323V31.1683V31.2044V31.2403V31.2763V31.3122V31.3481V31.3839V31.4197V31.4555V31.4912V31.5269V31.5625V31.5982V31.6337V31.6693V31.7048V31.7402V31.7756V31.811V31.8464V31.8817V31.917V31.9522V31.9874V32.0225V32.0577V32.0927V32.1278V32.1628V32.1978V32.2327V32.2676V32.3024V32.3372V32.372V32.4067V32.4414V32.4761V32.5107V32.5452V32.5798V32.6143V32.6487V32.6831V32.7175V32.7519V32.7862V32.8204V32.8546V32.8888V32.9229V32.957V32.9911V33.0251V33.0591V33.093V33.1269V33.1608V33.1946V33.2284V33.2621V33.2958V33.3295V33.3631V33.3966V33.4302V33.4637V33.4971V33.5305V33.5639V33.5972V33.6305V33.6637V33.6969V33.7301V33.7632V33.7963V33.8293V33.8623V33.8953V33.9282V33.9611V33.9939V34.0267V34.0594V34.0921V34.1248V34.1574V34.19V34.2225V34.255V34.2874V34.3198V34.3522V34.3845V34.4168V34.449V34.4812V34.5134V34.5455V34.5775V34.6096V34.6415V34.6735V34.7054V34.7372V34.769V34.8008V34.8325V34.8642V34.8958V34.9274V34.9589V34.9904V35.0219V35.0533V35.0846V35.116V35.1472V35.1785V35.2097V35.2408V35.2719V35.303V35.334V35.3649V35.3959V35.4267V35.4576V35.4884V35.5191V35.5498V35.5805V35.6111V35.6416V35.6721V35.7026V35.7331V35.7634V35.7938V35.8241V35.8543V35.8845V35.9147V35.9448V35.9748V36.0049C205 39.8701 201.867 43 198 43H19.3137C17.4572 43 15.6767 42.2625 14.364 40.9497L3.05025 29.636C1.7375 28.3233 1 26.5428 1 24.6863V8C1 4.13401 4.13401 1 8 1Z" stroke="url(#paint0_linear_151_38)" stroke-width="2"/>
<path d="M33.688 20.112C33.688 21.04 33.368 21.8133 32.728 22.432C32.0987 23.04 31.1333 23.344 29.832 23.344H27.688V28H26.232V16.848H29.832C31.0907 16.848 32.0453 17.152 32.696 17.76C33.3573 18.368 33.688 19.152 33.688 20.112ZM29.832 22.144C30.6427 22.144 31.24 21.968 31.624 21.616C32.008 21.264 32.2 20.7627 32.2 20.112C32.2 18.736 31.4107 18.048 29.832 18.048H27.688V22.144H29.832ZM39.3216 28.144C38.5003 28.144 37.7536 27.9573 37.0816 27.584C36.4203 27.2107 35.8976 26.6827 35.5136 26C35.1403 25.3067 34.9536 24.5067 34.9536 23.6C34.9536 22.704 35.1456 21.9147 35.5296 21.232C35.9243 20.5387 36.4576 20.0107 37.1296 19.648C37.8016 19.2747 38.5536 19.088 39.3856 19.088C40.2176 19.088 40.9696 19.2747 41.6416 19.648C42.3136 20.0107 42.8416 20.5333 43.2256 21.216C43.6203 21.8987 43.8176 22.6933 43.8176 23.6C43.8176 24.5067 43.615 25.3067 43.2096 26C42.815 26.6827 42.2763 27.2107 41.5936 27.584C40.911 27.9573 40.1536 28.144 39.3216 28.144ZM39.3216 26.864C39.8443 26.864 40.335 26.7413 40.7936 26.496C41.2523 26.2507 41.6203 25.8827 41.8976 25.392C42.1856 24.9013 42.3296 24.304 42.3296 23.6C42.3296 22.896 42.191 22.2987 41.9136 21.808C41.6363 21.3173 41.2736 20.9547 40.8256 20.72C40.3776 20.4747 39.8923 20.352 39.3696 20.352C38.8363 20.352 38.3456 20.4747 37.8976 20.72C37.4603 20.9547 37.1083 21.3173 36.8416 21.808C36.575 22.2987 36.4416 22.896 36.4416 23.6C36.4416 24.3147 36.5696 24.9173 36.8256 25.408C37.0923 25.8987 37.4443 26.2667 37.8816 26.512C38.319 26.7467 38.799 26.864 39.3216 26.864ZM57.412 19.232L54.676 28H53.172L51.06 21.04L48.948 28H47.444L44.692 19.232H46.18L48.196 26.592L50.372 19.232H51.86L53.988 26.608L55.972 19.232H57.412ZM66.857 23.28C66.857 23.5573 66.841 23.8507 66.809 24.16H59.801C59.8543 25.024 60.1477 25.7013 60.681 26.192C61.225 26.672 61.881 26.912 62.649 26.912C63.2783 26.912 63.801 26.768 64.217 26.48C64.6437 26.1813 64.9423 25.7867 65.113 25.296H66.681C66.4463 26.1387 65.977 26.8267 65.273 27.36C64.569 27.8827 63.6943 28.144 62.649 28.144C61.817 28.144 61.0703 27.9573 60.409 27.584C59.7583 27.2107 59.2463 26.6827 58.873 26C58.4997 25.3067 58.313 24.5067 58.313 23.6C58.313 22.6933 58.4943 21.8987 58.857 21.216C59.2197 20.5333 59.7263 20.0107 60.377 19.648C61.0383 19.2747 61.7957 19.088 62.649 19.088C63.481 19.088 64.217 19.2693 64.857 19.632C65.497 19.9947 65.9877 20.496 66.329 21.136C66.681 21.7653 66.857 22.48 66.857 23.28ZM65.353 22.976C65.353 22.4213 65.2303 21.9467 64.985 21.552C64.7397 21.1467 64.4037 20.8427 63.977 20.64C63.561 20.4267 63.097 20.32 62.585 20.32C61.849 20.32 61.2197 20.5547 60.697 21.024C60.185 21.4933 59.8917 22.144 59.817 22.976H65.353ZM70.2349 20.656C70.4909 20.1547 70.8535 19.7653 71.3229 19.488C71.8029 19.2107 72.3842 19.072 73.0669 19.072V20.576H72.6829C71.0509 20.576 70.2349 21.4613 70.2349 23.232V28H68.7789V19.232H70.2349V20.656ZM82.7476 23.28C82.7476 23.5573 82.7316 23.8507 82.6996 24.16H75.6916C75.745 25.024 76.0383 25.7013 76.5716 26.192C77.1156 26.672 77.7716 26.912 78.5396 26.912C79.169 26.912 79.6916 26.768 80.1076 26.48C80.5343 26.1813 80.833 25.7867 81.0036 25.296H82.5716C82.337 26.1387 81.8676 26.8267 81.1636 27.36C80.4596 27.8827 79.585 28.144 78.5396 28.144C77.7076 28.144 76.961 27.9573 76.2996 27.584C75.649 27.2107 75.137 26.6827 74.7636 26C74.3903 25.3067 74.2036 24.5067 74.2036 23.6C74.2036 22.6933 74.385 21.8987 74.7476 21.216C75.1103 20.5333 75.617 20.0107 76.2676 19.648C76.929 19.2747 77.6863 19.088 78.5396 19.088C79.3716 19.088 80.1076 19.2693 80.7476 19.632C81.3876 19.9947 81.8783 20.496 82.2196 21.136C82.5716 21.7653 82.7476 22.48 82.7476 23.28ZM81.2436 22.976C81.2436 22.4213 81.121 21.9467 80.8756 21.552C80.6303 21.1467 80.2943 20.8427 79.8676 20.64C79.4516 20.4267 78.9876 20.32 78.4756 20.32C77.7396 20.32 77.1103 20.5547 76.5876 21.024C76.0756 21.4933 75.7823 22.144 75.7076 22.976H81.2436ZM84.1255 23.584C84.1255 22.688 84.3068 21.904 84.6695 21.232C85.0322 20.5493 85.5282 20.0213 86.1575 19.648C86.7975 19.2747 87.5122 19.088 88.3015 19.088C88.9842 19.088 89.6188 19.248 90.2055 19.568C90.7922 19.8773 91.2402 20.288 91.5495 20.8V16.16H93.0215V28H91.5495V26.352C91.2615 26.8747 90.8348 27.3067 90.2695 27.648C89.7042 27.9787 89.0428 28.144 88.2855 28.144C87.5068 28.144 86.7975 27.952 86.1575 27.568C85.5282 27.184 85.0322 26.6453 84.6695 25.952C84.3068 25.2587 84.1255 24.4693 84.1255 23.584ZM91.5495 23.6C91.5495 22.9387 91.4162 22.3627 91.1495 21.872C90.8828 21.3813 90.5202 21.008 90.0615 20.752C89.6135 20.4853 89.1175 20.352 88.5735 20.352C88.0295 20.352 87.5335 20.48 87.0855 20.736C86.6375 20.992 86.2802 21.3653 86.0135 21.856C85.7468 22.3467 85.6135 22.9227 85.6135 23.584C85.6135 24.256 85.7468 24.8427 86.0135 25.344C86.2802 25.8347 86.6375 26.2133 87.0855 26.48C87.5335 26.736 88.0295 26.864 88.5735 26.864C89.1175 26.864 89.6135 26.736 90.0615 26.48C90.5202 26.2133 90.8828 25.8347 91.1495 25.344C91.4162 24.8427 91.5495 24.2613 91.5495 23.6ZM105.332 22.256C105.737 22.32 106.105 22.4853 106.436 22.752C106.777 23.0187 107.044 23.3493 107.236 23.744C107.438 24.1387 107.54 24.56 107.54 25.008C107.54 25.5733 107.396 26.0853 107.108 26.544C106.82 26.992 106.398 27.3493 105.844 27.616C105.3 27.872 104.654 28 103.908 28H99.7476V16.848H103.748C104.505 16.848 105.15 16.976 105.684 17.232C106.217 17.4773 106.617 17.8133 106.884 18.24C107.15 18.6667 107.284 19.1467 107.284 19.68C107.284 20.3413 107.102 20.8907 106.74 21.328C106.388 21.7547 105.918 22.064 105.332 22.256ZM101.204 21.664H103.652C104.334 21.664 104.862 21.504 105.236 21.184C105.609 20.864 105.796 20.4213 105.796 19.856C105.796 19.2907 105.609 18.848 105.236 18.528C104.862 18.208 104.324 18.048 103.62 18.048H101.204V21.664ZM103.78 26.8C104.505 26.8 105.07 26.6293 105.476 26.288C105.881 25.9467 106.084 25.472 106.084 24.864C106.084 24.2453 105.87 23.76 105.444 23.408C105.017 23.0453 104.446 22.864 103.732 22.864H101.204V26.8H103.78ZM117.112 19.232L111.832 32.128H110.328L112.056 27.904L108.52 19.232H110.136L112.888 26.336L115.608 19.232H117.112ZM130.297 20.112C130.297 21.04 129.977 21.8133 129.337 22.432C128.708 23.04 127.743 23.344 126.441 23.344H124.297V28H122.841V16.848H126.441C127.7 16.848 128.655 17.152 129.305 17.76C129.967 18.368 130.297 19.152 130.297 20.112ZM126.441 22.144C127.252 22.144 127.849 21.968 128.233 21.616C128.617 21.264 128.809 20.7627 128.809 20.112C128.809 18.736 128.02 18.048 126.441 18.048H124.297V22.144H126.441ZM137.979 28L135.323 23.44H133.563V28H132.107V16.848H135.707C136.55 16.848 137.259 16.992 137.835 17.28C138.422 17.568 138.859 17.9573 139.147 18.448C139.435 18.9387 139.579 19.4987 139.579 20.128C139.579 20.896 139.355 21.5733 138.907 22.16C138.47 22.7467 137.808 23.136 136.923 23.328L139.723 28H137.979ZM133.563 22.272H135.707C136.496 22.272 137.088 22.08 137.483 21.696C137.878 21.3013 138.075 20.7787 138.075 20.128C138.075 19.4667 137.878 18.9547 137.483 18.592C137.099 18.2293 136.507 18.048 135.707 18.048H133.563V22.272ZM141.297 22.416C141.297 21.328 141.543 20.352 142.033 19.488C142.524 18.6133 143.191 17.9307 144.033 17.44C144.887 16.9493 145.831 16.704 146.865 16.704C148.081 16.704 149.143 16.9973 150.049 17.584C150.956 18.1707 151.617 19.0027 152.033 20.08H150.289C149.98 19.408 149.532 18.8907 148.945 18.528C148.369 18.1653 147.676 17.984 146.865 17.984C146.087 17.984 145.388 18.1653 144.769 18.528C144.151 18.8907 143.665 19.408 143.313 20.08C142.961 20.7413 142.785 21.52 142.785 22.416C142.785 23.3013 142.961 24.08 143.313 24.752C143.665 25.4133 144.151 25.9253 144.769 26.288C145.388 26.6507 146.087 26.832 146.865 26.832C147.676 26.832 148.369 26.656 148.945 26.304C149.532 25.9413 149.98 25.424 150.289 24.752H152.033C151.617 25.8187 150.956 26.6453 150.049 27.232C149.143 27.808 148.081 28.096 146.865 28.096C145.831 28.096 144.887 27.856 144.033 27.376C143.191 26.8853 142.524 26.208 142.033 25.344C141.543 24.48 141.297 23.504 141.297 22.416ZM160.281 21.52V22.752H153.897V21.52H160.281ZM162.597 26.832C163.952 25.744 165.013 24.8533 165.781 24.16C166.549 23.456 167.195 22.7253 167.717 21.968C168.251 21.2 168.517 20.448 168.517 19.712C168.517 19.0187 168.347 18.4747 168.005 18.08C167.675 17.6747 167.136 17.472 166.389 17.472C165.664 17.472 165.099 17.7013 164.693 18.16C164.299 18.608 164.085 19.2107 164.053 19.968H162.645C162.688 18.7733 163.051 17.8507 163.733 17.2C164.416 16.5493 165.296 16.224 166.373 16.224C167.472 16.224 168.341 16.528 168.981 17.136C169.632 17.744 169.957 18.5813 169.957 19.648C169.957 20.5333 169.691 21.3973 169.157 22.24C168.635 23.072 168.037 23.808 167.365 24.448C166.693 25.0773 165.835 25.8133 164.789 26.656H170.293V27.872H162.597V26.832ZM171.976 22.096C171.976 20.2613 172.275 18.832 172.872 17.808C173.47 16.7733 174.515 16.256 176.008 16.256C177.491 16.256 178.531 16.7733 179.128 17.808C179.726 18.832 180.024 20.2613 180.024 22.096C180.024 23.9627 179.726 25.4133 179.128 26.448C178.531 27.4827 177.491 28 176.008 28C174.515 28 173.47 27.4827 172.872 26.448C172.275 25.4133 171.976 23.9627 171.976 22.096ZM178.584 22.096C178.584 21.168 178.52 20.384 178.392 19.744C178.275 19.0933 178.024 18.5707 177.64 18.176C177.267 17.7813 176.723 17.584 176.008 17.584C175.283 17.584 174.728 17.7813 174.344 18.176C173.971 18.5707 173.72 19.0933 173.592 19.744C173.475 20.384 173.416 21.168 173.416 22.096C173.416 23.056 173.475 23.8613 173.592 24.512C173.72 25.1627 173.971 25.6853 174.344 26.08C174.728 26.4747 175.283 26.672 176.008 26.672C176.723 26.672 177.267 26.4747 177.64 26.08C178.024 25.6853 178.275 25.1627 178.392 24.512C178.52 23.8613 178.584 23.056 178.584 22.096Z" fill="#F5F5F5"/>
<defs>
<linearGradient id="paint0_linear_151_38" x1="1.67435e-06" y1="2" x2="107.127" y2="126.843" gradientUnits="userSpaceOnUse">
<stop stop-color="#D7A7CC" stop-opacity="0.5"/>
<stop offset="0.368341" stop-color="white" stop-opacity="0"/>
<stop offset="0.696469" stop-color="white" stop-opacity="0"/>
<stop offset="1" stop-color="#5069A8" stop-opacity="0.5"/>
</linearGradient>
</defs>
</svg>
